<?xml version="1.0" encoding="utf-8"?>
<!-- Generator: Adobe Illustrator 19.1.0, SVG Export Plug-In . SVG Version: 6.00 Build 0)  -->
<svg version="1.1" xmlns="http://www.w3.org/2000/svg" xmlns:xlink="http://www.w3.org/1999/xlink" x="0px" y="0px"
	 viewBox="0 0 22.8 26.7" style="enable-background:new 0 0 22.8 26.7;" xml:space="preserve">
<style type="text/css">
	.st0{fill:#0C0C0C;}
	.st1{fill:#FFFFFF;}
	.st2{fill:#141414;}
	.st3{fill:#F2F2F2;}
	.st4{fill:#3ABEEF;}
	.st5{fill:#43B073;}
	.st6{fill:none;stroke:#43B073;stroke-width:2.415;stroke-miterlimit:10;}
	.st7{opacity:0.95;fill:#FFFFFF;}
	.st8{fill:#333333;}
	.st9{filter:url(#Adobe_OpacityMaskFilter);}
	.st10{opacity:0.75;mask:url(#SVGID_9_);}
	.st11{fill:#000405;}
	.st12{filter:url(#Adobe_OpacityMaskFilter_1_);}
	.st13{opacity:0.75;mask:url(#SVGID_10_);}
	.st14{fill:none;stroke:#43B073;stroke-width:7;stroke-miterlimit:10;}
	.st15{filter:url(#Adobe_OpacityMaskFilter_2_);}
	.st16{opacity:0.75;mask:url(#SVGID_11_);}
	.st17{fill:#BCBCBC;}
	.st18{filter:url(#Adobe_OpacityMaskFilter_3_);}
	.st19{opacity:0.75;mask:url(#SVGID_12_);}
	.st20{fill:#43B073;stroke:#43B073;stroke-width:2.0725;stroke-miterlimit:10;}
	.st21{filter:url(#Adobe_OpacityMaskFilter_4_);}
	.st22{opacity:0.75;mask:url(#SVGID_13_);}
	.st23{fill:#F9B233;}
	.st24{filter:url(#Adobe_OpacityMaskFilter_5_);}
	.st25{opacity:0.75;mask:url(#SVGID_14_);}
	.st26{fill:#299DC1;}
	.st27{fill:#338C57;}
	.st28{fill:#ED1C24;}
	.st29{fill:#232323;}
	.st30{fill:#43B073;stroke:#43B073;stroke-width:2;stroke-miterlimit:10;}
	.st31{fill:none;stroke:#3ABEEF;stroke-width:2.5;stroke-miterlimit:10;}
	.st32{fill:#4D4D4D;}
	.st33{fill:none;stroke:#43B073;stroke-miterlimit:10;}
	.st34{fill:#ABD1BC;}
	.st35{fill:#1A1A1A;}
	.st36{fill:none;stroke:#2D2D2A;stroke-width:0.544;stroke-miterlimit:10;}
	.st37{fill:#3F3F3F;}
	.st38{fill:none;stroke:#CCCCCC;stroke-miterlimit:10;}
	.st39{opacity:0.7;fill:#FFFFFF;}
	.st40{fill:#999999;}
	.st41{filter:url(#Adobe_OpacityMaskFilter_6_);}
	.st42{opacity:0.75;mask:url(#SVGID_31_);}
	.st43{filter:url(#Adobe_OpacityMaskFilter_7_);}
	.st44{opacity:0.75;mask:url(#SVGID_32_);}
	.st45{filter:url(#Adobe_OpacityMaskFilter_8_);}
	.st46{opacity:0.75;mask:url(#SVGID_33_);}
	.st47{filter:url(#Adobe_OpacityMaskFilter_9_);}
	.st48{opacity:0.75;mask:url(#SVGID_34_);}
	.st49{filter:url(#Adobe_OpacityMaskFilter_10_);}
	.st50{opacity:0.75;mask:url(#SVGID_35_);}
	.st51{filter:url(#Adobe_OpacityMaskFilter_11_);}
	.st52{opacity:0.75;mask:url(#SVGID_36_);}
	.st53{opacity:0.9;fill:#FFFFFF;}
	.st54{fill:#ECECEC;stroke:#808080;stroke-miterlimit:10;}
	.st55{fill:none;stroke:#F9B233;stroke-width:1.5535;stroke-miterlimit:10;}
	.st56{fill:none;stroke:#43B073;stroke-width:1.5535;stroke-miterlimit:10;}
	.st57{fill:none;stroke:#43B073;stroke-width:10;stroke-miterlimit:10;}
	.st58{fill:none;stroke:#3ABEEF;stroke-width:10;stroke-miterlimit:10;}
	.st59{fill:none;stroke:#F9B233;stroke-width:10;stroke-miterlimit:10;}
	.st60{fill:none;stroke:#000000;stroke-miterlimit:10;}
	.st61{fill:none;stroke:#43B073;stroke-width:3;stroke-miterlimit:10;}
	.st62{fill:none;stroke:#F9B233;stroke-width:3;stroke-miterlimit:10;}
	.st63{display:none;}
	.st64{display:inline;opacity:5.000000e-02;}
	.st65{fill:#FF0000;}
</style>
<g id="Layer_5">
</g>
<g id="Layer_1">
</g>
<g id="Layer_2">
</g>
<g id="Layer_3">
	<g>
		<path class="st1" d="M18,25.5H4.8c-1.8,0-3.3-1.5-3.3-3.3v-8.1c0-1.8,1.4-3.2,3.2-3.3V8c0-3.8,3.1-6.8,6.8-6.8
			c3.7,0,6.8,3.1,6.8,6.8v2.8c1.8,0.1,3.2,1.5,3.2,3.3v8.1C21.4,24,19.9,25.5,18,25.5z M4.8,11.7c-1.3,0-2.4,1.1-2.4,2.4v8.1
			c0,1.3,1.1,2.4,2.4,2.4H18c1.3,0,2.4-1.1,2.4-2.4v-8.1c0-1.3-1.1-2.4-2.4-2.4h-0.8V8c0-3.2-2.6-5.8-5.8-5.8C8.2,2.1,5.6,4.7,5.6,8
			v3.7L4.8,11.7z M16.3,11.7H6.5V8c0-2.7,2.2-4.9,4.9-4.9c2.7,0,4.9,2.2,4.9,4.9L16.3,11.7L16.3,11.7z M7.5,10.8h7.9V8
			c0-2.2-1.8-3.9-3.9-3.9S7.5,5.8,7.5,8V10.8z M11.4,14.9c-0.9,0-1.6,0.7-1.6,1.6c0,0.9,0.7,1.6,1.6,1.6c0.9,0,1.6-0.7,1.6-1.6
			C13,15.6,12.3,14.9,11.4,14.9z M12.2,17c0-0.4-0.4-0.8-0.8-0.8l0,0c-0.4,0-0.8,0.4-0.8,0.8v3.7c0,0.4,0.4,0.8,0.8,0.8l0,0
			c0.4,0,0.8-0.4,0.8-0.8V17z"/>
	</g>
</g>
<g id="Layer_6">
</g>
<g id="Layer_4" class="st63">
</g>
</svg>
